<?xml version="1.0" standalone="no"?>
<!DOCTYPE svg PUBLIC "-//W3C//DTD SVG 20010904//EN"
 "http://www.w3.org/TR/2001/REC-SVG-20010904/DTD/svg10.dtd">
<svg version="1.0" xmlns="http://www.w3.org/2000/svg"
 width="247.000000pt" height="204.000000pt" viewBox="0 0 247.000000 204.000000"
 preserveAspectRatio="xMidYMid meet">

<g transform="translate(0.000000,204.000000) scale(0.100000,-0.100000)"
fill="#000000" stroke="none">
<path d="M291 1970 c-91 -5 -171 -12 -178 -14 -7 -3 -13 -16 -13 -30 0 -22 5
-26 48 -31 81 -11 111 -25 130 -58 16 -29 17 -84 17 -682 0 -609 -1 -652 -18
-683 -21 -39 -59 -57 -140 -67 -55 -7 -58 -9 -55 -33 l3 -26 308 0 c284 -1
308 0 313 16 8 27 -3 36 -54 44 -68 9 -108 28 -129 60 -16 25 -18 57 -21 313
-3 227 -1 286 10 292 21 14 166 10 201 -5 47 -20 73 -52 194 -241 341 -529
453 -671 568 -724 51 -24 173 -44 229 -39 30 3 33 9 27 46 0 5 -23 14 -49 21
-58 15 -150 87 -214 168 -68 87 -161 234 -297 471 -67 117 -139 241 -161 276
-55 91 -55 94 11 128 92 47 173 128 216 215 36 72 38 81 37 172 0 118 -24 187
-90 260 -56 62 -159 115 -264 136 -95 19 -412 26 -629 15z m551 -102 c157 -73
235 -231 209 -422 -6 -42 -22 -98 -35 -125 -31 -60 -102 -124 -164 -146 -58
-21 -284 -32 -324 -16 l-28 11 0 349 0 350 23 16 c18 13 43 16 142 13 105 -3
127 -7 177 -30z"/>
<path d="M1689 1416 c-255 -45 -424 -155 -533 -346 -14 -25 -26 -51 -26 -58 0
-8 30 -60 67 -115 l68 -102 6 71 c24 256 170 437 395 490 50 12 102 15 189 12
137 -5 199 -26 273 -93 39 -34 102 -141 102 -172 0 -7 11 -13 25 -13 17 0 25
5 25 18 0 25 -29 265 -32 268 -2 1 -50 12 -108 24 -132 28 -342 35 -451 16z"/>
<path d="M1880 601 c0 -20 3 -21 124 -37 82 -11 92 -28 99 -170 5 -81 3 -135
-6 -169 -11 -46 -16 -52 -61 -74 -38 -19 -69 -25 -148 -29 l-99 -5 3 -26 3
-26 93 1 c94 2 159 11 317 46 127 28 122 24 94 54 -23 24 -24 33 -27 185 -4
187 1 202 73 220 33 8 45 16 45 30 0 18 -12 19 -255 19 -244 0 -255 -1 -255
-19z"/>
</g>
</svg>
